<?xml version="1.0" encoding="UTF-8" standalone="no"?><svg xmlns="http://www.w3.org/2000/svg" xmlns:xlink="http://www.w3.org/1999/xlink" contentScriptType="application/ecmascript" contentStyleType="text/css" height="1953px" preserveAspectRatio="none" style="width:3468px;height:1953px;" version="1.1" viewBox="0 0 3468 1953" width="3468px" zoomAndPan="magnify"><defs><filter height="300%" id="f12i9hxsd2n1dr" width="300%" x="-1" y="-1"><feGaussianBlur result="blurOut" stdDeviation="2.0"/><feColorMatrix in="blurOut" result="blurOut2" type="matrix" values="0 0 0 0 0 0 0 0 0 0 0 0 0 0 0 0 0 0 .4 0"/><feOffset dx="4.0" dy="4.0" in="blurOut2" result="blurOut3"/><feBlend in="SourceGraphic" in2="blurOut3" mode="normal"/></filter></defs><g><rect fill="#DDDDDD" height="1938.4297" style="stroke: #A80036; stroke-width: 1.0;" width="196" x="4" y="4"/><text fill="#000000" font-family="sans-serif" font-size="13" font-weight="bold" lengthAdjust="spacingAndGlyphs" textLength="190" x="7" y="16.0669">NetworkManager Process</text><rect fill="#DDDDDD" height="1938.4297" style="stroke: #A80036; stroke-width: 1.0;" width="138" x="202" y="4"/><text fill="#000000" font-family="sans-serif" font-size="13" font-weight="bold" lengthAdjust="spacingAndGlyphs" textLength="102" x="220" y="16.0669">CAPS Process</text><rect fill="#DDDDDD" height="1938.4297" style="stroke: #A80036; stroke-width: 1.0;" width="145" x="342" y="4"/><text fill="#000000" font-family="sans-serif" font-size="13" font-weight="bold" lengthAdjust="spacingAndGlyphs" textLength="139" x="345" y="16.0669">AudioPath Process</text><rect fill="#DDDDDD" height="1938.4297" style="stroke: #A80036; stroke-width: 1.0;" width="171" x="489" y="4"/><text fill="#000000" font-family="sans-serif" font-size="13" font-weight="bold" lengthAdjust="spacingAndGlyphs" textLength="137" x="506" y="16.0669">FrontDoor Process</text><rect fill="#DDDDDD" height="1938.4297" style="stroke: #A80036; stroke-width: 1.0;" width="2646" x="662" y="4"/><text fill="#000000" font-family="sans-serif" font-size="13" font-weight="bold" lengthAdjust="spacingAndGlyphs" textLength="193" x="1888.5" y="16.0669">ProductController Process</text><rect fill="#DDDDDD" height="1938.4297" style="stroke: #A80036; stroke-width: 1.0;" width="147" x="3310" y="4"/><text fill="#000000" font-family="sans-serif" font-size="13" font-weight="bold" lengthAdjust="spacingAndGlyphs" textLength="141" x="3313" y="16.0669">LPMServer Process</text><line style="stroke: #A80036; stroke-width: 1.0; stroke-dasharray: 5.0,5.0;" x1="101.5" x2="101.5" y1="58.4297" y2="1904.1328"/><line style="stroke: #A80036; stroke-width: 1.0; stroke-dasharray: 5.0,5.0;" x1="271" x2="271" y1="58.4297" y2="1904.1328"/><line style="stroke: #A80036; stroke-width: 1.0; stroke-dasharray: 5.0,5.0;" x1="414.5" x2="414.5" y1="58.4297" y2="1904.1328"/><line style="stroke: #A80036; stroke-width: 1.0; stroke-dasharray: 5.0,5.0;" x1="574" x2="574" y1="58.4297" y2="1904.1328"/><line style="stroke: #A80036; stroke-width: 1.0; stroke-dasharray: 5.0,5.0;" x1="718" x2="718" y1="58.4297" y2="1904.1328"/><line style="stroke: #A80036; stroke-width: 1.0; stroke-dasharray: 5.0,5.0;" x1="882" x2="882" y1="58.4297" y2="1904.1328"/><line style="stroke: #A80036; stroke-width: 1.0; stroke-dasharray: 5.0,5.0;" x1="1157" x2="1157" y1="58.4297" y2="1904.1328"/><line style="stroke: #A80036; stroke-width: 1.0; stroke-dasharray: 5.0,5.0;" x1="1365" x2="1365" y1="58.4297" y2="1904.1328"/><line style="stroke: #A80036; stroke-width: 1.0; stroke-dasharray: 5.0,5.0;" x1="1559" x2="1559" y1="58.4297" y2="1904.1328"/><line style="stroke: #A80036; stroke-width: 1.0; stroke-dasharray: 5.0,5.0;" x1="1742" x2="1742" y1="58.4297" y2="1904.1328"/><line style="stroke: #A80036; stroke-width: 1.0; stroke-dasharray: 5.0,5.0;" x1="1935" x2="1935" y1="58.4297" y2="1904.1328"/><line style="stroke: #A80036; stroke-width: 1.0; stroke-dasharray: 5.0,5.0;" x1="2122" x2="2122" y1="58.4297" y2="1904.1328"/><line style="stroke: #A80036; stroke-width: 1.0; stroke-dasharray: 5.0,5.0;" x1="2299" x2="2299" y1="58.4297" y2="1904.1328"/><line style="stroke: #A80036; stroke-width: 1.0; stroke-dasharray: 5.0,5.0;" x1="2478" x2="2478" y1="58.4297" y2="1904.1328"/><line style="stroke: #A80036; stroke-width: 1.0; stroke-dasharray: 5.0,5.0;" x1="2715" x2="2715" y1="58.4297" y2="1904.1328"/><line style="stroke: #A80036; stroke-width: 1.0; stroke-dasharray: 5.0,5.0;" x1="2970" x2="2970" y1="58.4297" y2="1904.1328"/><line style="stroke: #A80036; stroke-width: 1.0; stroke-dasharray: 5.0,5.0;" x1="3211" x2="3211" y1="58.4297" y2="1904.1328"/><line style="stroke: #A80036; stroke-width: 1.0; stroke-dasharray: 5.0,5.0;" x1="3383.5" x2="3383.5" y1="58.4297" y2="1904.1328"/><rect fill="#FEFECE" filter="url(#f12i9hxsd2n1dr)" height="30.2969" style="stroke: #A80036; stroke-width: 1.5;" width="131" x="34.5" y="23.1328"/><text fill="#000000" font-family="sans-serif" font-size="14" lengthAdjust="spacingAndGlyphs" textLength="117" x="41.5" y="43.1279">NetworkManager</text><rect fill="#FEFECE" filter="url(#f12i9hxsd2n1dr)" height="30.2969" style="stroke: #A80036; stroke-width: 1.5;" width="131" x="34.5" y="1903.1328"/><text fill="#000000" font-family="sans-serif" font-size="14" lengthAdjust="spacingAndGlyphs" textLength="117" x="41.5" y="1923.1279">NetworkManager</text><rect fill="#FEFECE" filter="url(#f12i9hxsd2n1dr)" height="30.2969" style="stroke: #A80036; stroke-width: 1.5;" width="126" x="206" y="23.1328"/><text fill="#000000" font-family="sans-serif" font-size="14" lengthAdjust="spacingAndGlyphs" textLength="112" x="213" y="43.1279">CAPSApplication</text><rect fill="#FEFECE" filter="url(#f12i9hxsd2n1dr)" height="30.2969" style="stroke: #A80036; stroke-width: 1.5;" width="126" x="206" y="1903.1328"/><text fill="#000000" font-family="sans-serif" font-size="14" lengthAdjust="spacingAndGlyphs" textLength="112" x="213" y="1923.1279">CAPSApplication</text><rect fill="#FEFECE" filter="url(#f12i9hxsd2n1dr)" height="30.2969" style="stroke: #A80036; stroke-width: 1.5;" width="86" x="369.5" y="23.1328"/><text fill="#000000" font-family="sans-serif" font-size="14" lengthAdjust="spacingAndGlyphs" textLength="72" x="376.5" y="43.1279">APProduct</text><rect fill="#FEFECE" filter="url(#f12i9hxsd2n1dr)" height="30.2969" style="stroke: #A80036; stroke-width: 1.5;" width="86" x="369.5" y="1903.1328"/><text fill="#000000" font-family="sans-serif" font-size="14" lengthAdjust="spacingAndGlyphs" textLength="72" x="376.5" y="1923.1279">APProduct</text><rect fill="#FEFECE" filter="url(#f12i9hxsd2n1dr)" height="30.2969" style="stroke: #A80036; stroke-width: 1.5;" width="159" x="493" y="23.1328"/><text fill="#000000" font-family="sans-serif" font-size="14" lengthAdjust="spacingAndGlyphs" textLength="145" x="500" y="43.1279">FrontDoorApplication</text><rect fill="#FEFECE" filter="url(#f12i9hxsd2n1dr)" height="30.2969" style="stroke: #A80036; stroke-width: 1.5;" width="159" x="493" y="1903.1328"/><text fill="#000000" font-family="sans-serif" font-size="14" lengthAdjust="spacingAndGlyphs" textLength="145" x="500" y="1923.1279">FrontDoorApplication</text><rect fill="#FEFECE" filter="url(#f12i9hxsd2n1dr)" height="30.2969" style="stroke: #A80036; stroke-width: 1.5;" width="100" x="666" y="23.1328"/><text fill="#000000" font-family="sans-serif" font-size="14" lengthAdjust="spacingAndGlyphs" textLength="86" x="673" y="43.1279">ProductStart</text><rect fill="#FEFECE" filter="url(#f12i9hxsd2n1dr)" height="30.2969" style="stroke: #A80036; stroke-width: 1.5;" width="100" x="666" y="1903.1328"/><text fill="#000000" font-family="sans-serif" font-size="14" lengthAdjust="spacingAndGlyphs" textLength="86" x="673" y="1923.1279">ProductStart</text><rect fill="#FEFECE" filter="url(#f12i9hxsd2n1dr)" height="30.2969" style="stroke: #A80036; stroke-width: 1.5;" width="201" x="780" y="23.1328"/><text fill="#000000" font-family="sans-serif" font-size="14" lengthAdjust="spacingAndGlyphs" textLength="187" x="787" y="43.1279">ProfessorProductController</text><rect fill="#FEFECE" filter="url(#f12i9hxsd2n1dr)" height="30.2969" style="stroke: #A80036; stroke-width: 1.5;" width="201" x="780" y="1903.1328"/><text fill="#000000" font-family="sans-serif" font-size="14" lengthAdjust="spacingAndGlyphs" textLength="187" x="787" y="1923.1279">ProfessorProductController</text><rect fill="#FEFECE" filter="url(#f12i9hxsd2n1dr)" height="30.2969" style="stroke: #A80036; stroke-width: 1.5;" width="193" x="1059" y="23.1328"/><text fill="#000000" font-family="sans-serif" font-size="14" lengthAdjust="spacingAndGlyphs" textLength="179" x="1066" y="43.1279">ProductHardwareInterface</text><rect fill="#FEFECE" filter="url(#f12i9hxsd2n1dr)" height="30.2969" style="stroke: #A80036; stroke-width: 1.5;" width="193" x="1059" y="1903.1328"/><text fill="#000000" font-family="sans-serif" font-size="14" lengthAdjust="spacingAndGlyphs" textLength="179" x="1066" y="1923.1279">ProductHardwareInterface</text><rect fill="#FEFECE" filter="url(#f12i9hxsd2n1dr)" height="30.2969" style="stroke: #A80036; stroke-width: 1.5;" width="195" x="1266" y="23.1328"/><text fill="#000000" font-family="sans-serif" font-size="14" lengthAdjust="spacingAndGlyphs" textLength="181" x="1273" y="43.1279">ProductFrontDoorNetwork</text><rect fill="#FEFECE" filter="url(#f12i9hxsd2n1dr)" height="30.2969" style="stroke: #A80036; stroke-width: 1.5;" width="195" x="1266" y="1903.1328"/><text fill="#000000" font-family="sans-serif" font-size="14" lengthAdjust="spacingAndGlyphs" textLength="181" x="1273" y="1923.1279">ProductFrontDoorNetwork</text><rect fill="#FEFECE" filter="url(#f12i9hxsd2n1dr)" height="30.2969" style="stroke: #A80036; stroke-width: 1.5;" width="165" x="1475" y="23.1328"/><text fill="#000000" font-family="sans-serif" font-size="14" lengthAdjust="spacingAndGlyphs" textLength="151" x="1482" y="43.1279">ProductAudioServices</text><rect fill="#FEFECE" filter="url(#f12i9hxsd2n1dr)" height="30.2969" style="stroke: #A80036; stroke-width: 1.5;" width="165" x="1475" y="1903.1328"/><text fill="#000000" font-family="sans-serif" font-size="14" lengthAdjust="spacingAndGlyphs" textLength="151" x="1482" y="1923.1279">ProductAudioServices</text><rect fill="#FEFECE" filter="url(#f12i9hxsd2n1dr)" height="30.2969" style="stroke: #A80036; stroke-width: 1.5;" width="172" x="1654" y="23.1328"/><text fill="#000000" font-family="sans-serif" font-size="14" lengthAdjust="spacingAndGlyphs" textLength="158" x="1661" y="43.1279">ProductDeviceSettings</text><rect fill="#FEFECE" filter="url(#f12i9hxsd2n1dr)" height="30.2969" style="stroke: #A80036; stroke-width: 1.5;" width="172" x="1654" y="1903.1328"/><text fill="#000000" font-family="sans-serif" font-size="14" lengthAdjust="spacingAndGlyphs" textLength="158" x="1661" y="1923.1279">ProductDeviceSettings</text><rect fill="#FEFECE" filter="url(#f12i9hxsd2n1dr)" height="30.2969" style="stroke: #A80036; stroke-width: 1.5;" width="186" x="1840" y="23.1328"/><text fill="#000000" font-family="sans-serif" font-size="14" lengthAdjust="spacingAndGlyphs" textLength="172" x="1847" y="43.1279">ProductSoftwareServices</text><rect fill="#FEFECE" filter="url(#f12i9hxsd2n1dr)" height="30.2969" style="stroke: #A80036; stroke-width: 1.5;" width="186" x="1840" y="1903.1328"/><text fill="#000000" font-family="sans-serif" font-size="14" lengthAdjust="spacingAndGlyphs" textLength="172" x="1847" y="1923.1279">ProductSoftwareServices</text><rect fill="#FEFECE" filter="url(#f12i9hxsd2n1dr)" height="30.2969" style="stroke: #A80036; stroke-width: 1.5;" width="160" x="2040" y="23.1328"/><text fill="#000000" font-family="sans-serif" font-size="14" lengthAdjust="spacingAndGlyphs" textLength="146" x="2047" y="43.1279">ProductUserInterface</text><rect fill="#FEFECE" filter="url(#f12i9hxsd2n1dr)" height="30.2969" style="stroke: #A80036; stroke-width: 1.5;" width="160" x="2040" y="1903.1328"/><text fill="#000000" font-family="sans-serif" font-size="14" lengthAdjust="spacingAndGlyphs" textLength="146" x="2047" y="1923.1279">ProductUserInterface</text><rect fill="#FEFECE" filter="url(#f12i9hxsd2n1dr)" height="30.2969" style="stroke: #A80036; stroke-width: 1.5;" width="167" x="2214" y="23.1328"/><text fill="#000000" font-family="sans-serif" font-size="14" lengthAdjust="spacingAndGlyphs" textLength="153" x="2221" y="43.1279">ProductCommandLine</text><rect fill="#FEFECE" filter="url(#f12i9hxsd2n1dr)" height="30.2969" style="stroke: #A80036; stroke-width: 1.5;" width="167" x="2214" y="1903.1328"/><text fill="#000000" font-family="sans-serif" font-size="14" lengthAdjust="spacingAndGlyphs" textLength="153" x="2221" y="1923.1279">ProductCommandLine</text><rect fill="#FEFECE" filter="url(#f12i9hxsd2n1dr)" height="30.2969" style="stroke: #A80036; stroke-width: 1.5;" width="162" x="2395" y="23.1328"/><text fill="#000000" font-family="sans-serif" font-size="14" lengthAdjust="spacingAndGlyphs" textLength="148" x="2402" y="43.1279">ProductStateMachine</text><rect fill="#FEFECE" filter="url(#f12i9hxsd2n1dr)" height="30.2969" style="stroke: #A80036; stroke-width: 1.5;" width="162" x="2395" y="1903.1328"/><text fill="#000000" font-family="sans-serif" font-size="14" lengthAdjust="spacingAndGlyphs" textLength="148" x="2402" y="1923.1279">ProductStateMachine</text><rect fill="#FEFECE" filter="url(#f12i9hxsd2n1dr)" height="30.2969" style="stroke: #A80036; stroke-width: 1.5;" width="212" x="2607" y="23.1328"/><text fill="#000000" font-family="sans-serif" font-size="14" lengthAdjust="spacingAndGlyphs" textLength="198" x="2614" y="43.1279">CustomProductStateBooting</text><rect fill="#FEFECE" filter="url(#f12i9hxsd2n1dr)" height="30.2969" style="stroke: #A80036; stroke-width: 1.5;" width="212" x="2607" y="1903.1328"/><text fill="#000000" font-family="sans-serif" font-size="14" lengthAdjust="spacingAndGlyphs" textLength="198" x="2614" y="1923.1279">CustomProductStateBooting</text><rect fill="#FEFECE" filter="url(#f12i9hxsd2n1dr)" height="30.2969" style="stroke: #A80036; stroke-width: 1.5;" width="271" x="2833" y="23.1328"/><text fill="#000000" font-family="sans-serif" font-size="14" lengthAdjust="spacingAndGlyphs" textLength="257" x="2840" y="43.1279">CustomProductStateNetworkStandby</text><rect fill="#FEFECE" filter="url(#f12i9hxsd2n1dr)" height="30.2969" style="stroke: #A80036; stroke-width: 1.5;" width="271" x="2833" y="1903.1328"/><text fill="#000000" font-family="sans-serif" font-size="14" lengthAdjust="spacingAndGlyphs" textLength="257" x="2840" y="1923.1279">CustomProductStateNetworkStandby</text><rect fill="#FEFECE" filter="url(#f12i9hxsd2n1dr)" height="30.2969" style="stroke: #A80036; stroke-width: 1.5;" width="182" x="3118" y="23.1328"/><text fill="#000000" font-family="sans-serif" font-size="14" lengthAdjust="spacingAndGlyphs" textLength="168" x="3125" y="43.1279">CustomProductStateIdle</text><rect fill="#FEFECE" filter="url(#f12i9hxsd2n1dr)" height="30.2969" style="stroke: #A80036; stroke-width: 1.5;" width="182" x="3118" y="1903.1328"/><text fill="#000000" font-family="sans-serif" font-size="14" lengthAdjust="spacingAndGlyphs" textLength="168" x="3125" y="1923.1279">CustomProductStateIdle</text><rect fill="#FEFECE" filter="url(#f12i9hxsd2n1dr)" height="30.2969" style="stroke: #A80036; stroke-width: 1.5;" width="86" x="3338.5" y="23.1328"/><text fill="#000000" font-family="sans-serif" font-size="14" lengthAdjust="spacingAndGlyphs" textLength="72" x="3345.5" y="43.1279">LPMServer</text><rect fill="#FEFECE" filter="url(#f12i9hxsd2n1dr)" height="30.2969" style="stroke: #A80036; stroke-width: 1.5;" width="86" x="3338.5" y="1903.1328"/><text fill="#000000" font-family="sans-serif" font-size="14" lengthAdjust="spacingAndGlyphs" textLength="72" x="3345.5" y="1923.1279">LPMServer</text><polygon fill="#A80036" points="870.5,85.4297,880.5,89.4297,870.5,93.4297,874.5,89.4297" style="stroke: #A80036; stroke-width: 1.0;"/><line style="stroke: #A80036; stroke-width: 1.0;" x1="718" x2="876.5" y1="89.4297" y2="89.4297"/><text fill="#000000" font-family="sans-serif" font-size="13" lengthAdjust="spacingAndGlyphs" textLength="77" x="725" y="84.4966">GetInstance</text><polygon fill="#A80036" points="870.5,114.5625,880.5,118.5625,870.5,122.5625,874.5,118.5625" style="stroke: #A80036; stroke-width: 1.0;"/><line style="stroke: #A80036; stroke-width: 1.0;" x1="718" x2="876.5" y1="118.5625" y2="118.5625"/><text fill="#000000" font-family="sans-serif" font-size="13" lengthAdjust="spacingAndGlyphs" textLength="24" x="725" y="113.6294">Run</text><polygon fill="#A80036" points="1145.5,143.6953,1155.5,147.6953,1145.5,151.6953,1149.5,147.6953" style="stroke: #A80036; stroke-width: 1.0;"/><line style="stroke: #A80036; stroke-width: 1.0;" x1="882.5" x2="1151.5" y1="147.6953" y2="147.6953"/><text fill="#000000" font-family="sans-serif" font-size="13" lengthAdjust="spacingAndGlyphs" textLength="77" x="889.5" y="142.7622">GetInstance</text><polygon fill="#A80036" points="1353.5,172.8281,1363.5,176.8281,1353.5,180.8281,1357.5,176.8281" style="stroke: #A80036; stroke-width: 1.0;"/><line style="stroke: #A80036; stroke-width: 1.0;" x1="882.5" x2="1359.5" y1="176.8281" y2="176.8281"/><text fill="#000000" font-family="sans-serif" font-size="13" lengthAdjust="spacingAndGlyphs" textLength="77" x="889.5" y="171.895">GetInstance</text><polygon fill="#A80036" points="1547.5,201.9609,1557.5,205.9609,1547.5,209.9609,1551.5,205.9609" style="stroke: #A80036; stroke-width: 1.0;"/><line style="stroke: #A80036; stroke-width: 1.0;" x1="882.5" x2="1553.5" y1="205.9609" y2="205.9609"/><text fill="#000000" font-family="sans-serif" font-size="13" lengthAdjust="spacingAndGlyphs" textLength="77" x="889.5" y="201.0278">GetInstance</text><polygon fill="#A80036" points="1730,231.0938,1740,235.0938,1730,239.0938,1734,235.0938" style="stroke: #A80036; stroke-width: 1.0;"/><line style="stroke: #A80036; stroke-width: 1.0;" x1="882.5" x2="1736" y1="235.0938" y2="235.0938"/><text fill="#000000" font-family="sans-serif" font-size="13" lengthAdjust="spacingAndGlyphs" textLength="77" x="889.5" y="230.1606">GetInstance</text><polygon fill="#A80036" points="1923,260.2266,1933,264.2266,1923,268.2266,1927,264.2266" style="stroke: #A80036; stroke-width: 1.0;"/><line style="stroke: #A80036; stroke-width: 1.0;" x1="882.5" x2="1929" y1="264.2266" y2="264.2266"/><text fill="#000000" font-family="sans-serif" font-size="13" lengthAdjust="spacingAndGlyphs" textLength="77" x="889.5" y="259.2935">GetInstance</text><polygon fill="#A80036" points="2110,289.3594,2120,293.3594,2110,297.3594,2114,293.3594" style="stroke: #A80036; stroke-width: 1.0;"/><line style="stroke: #A80036; stroke-width: 1.0;" x1="882.5" x2="2116" y1="293.3594" y2="293.3594"/><text fill="#000000" font-family="sans-serif" font-size="13" lengthAdjust="spacingAndGlyphs" textLength="77" x="889.5" y="288.4263">GetInstance</text><polygon fill="#A80036" points="2287.5,318.4922,2297.5,322.4922,2287.5,326.4922,2291.5,322.4922" style="stroke: #A80036; stroke-width: 1.0;"/><line style="stroke: #A80036; stroke-width: 1.0;" x1="882.5" x2="2293.5" y1="322.4922" y2="322.4922"/><text fill="#000000" font-family="sans-serif" font-size="13" lengthAdjust="spacingAndGlyphs" textLength="77" x="889.5" y="317.5591">GetInstance</text><polygon fill="#A80036" points="1145.5,347.625,1155.5,351.625,1145.5,355.625,1149.5,351.625" style="stroke: #A80036; stroke-width: 1.0;"/><line style="stroke: #A80036; stroke-width: 1.0;" x1="882.5" x2="1151.5" y1="351.625" y2="351.625"/><text fill="#000000" font-family="sans-serif" font-size="13" lengthAdjust="spacingAndGlyphs" textLength="24" x="889.5" y="346.6919">Run</text><polygon fill="#A80036" points="3371.5,376.7578,3381.5,380.7578,3371.5,384.7578,3375.5,380.7578" style="stroke: #A80036; stroke-width: 1.0;"/><line style="stroke: #A80036; stroke-width: 1.0;" x1="1157.5" x2="3377.5" y1="380.7578" y2="380.7578"/><text fill="#000000" font-family="sans-serif" font-size="13" lengthAdjust="spacingAndGlyphs" textLength="193" x="1164.5" y="375.8247">Connect( ConnectedCallback )</text><polygon fill="#A80036" points="1168.5,405.8906,1158.5,409.8906,1168.5,413.8906,1164.5,409.8906" style="stroke: #A80036; stroke-width: 1.0;"/><line style="stroke: #A80036; stroke-width: 1.0;" x1="1162.5" x2="3382.5" y1="409.8906" y2="409.8906"/><text fill="#000000" font-family="sans-serif" font-size="13" lengthAdjust="spacingAndGlyphs" textLength="117" x="1174.5" y="404.9575">Connected( false )</text><line style="stroke: #A80036; stroke-width: 1.0;" x1="1157.5" x2="1199.5" y1="439.1563" y2="439.1563"/><line style="stroke: #A80036; stroke-width: 1.0;" x1="1199.5" x2="1199.5" y1="439.1563" y2="452.1563"/><line style="stroke: #A80036; stroke-width: 1.0;" x1="1158.5" x2="1199.5" y1="452.1563" y2="452.1563"/><polygon fill="#A80036" points="1168.5,448.1563,1158.5,452.1563,1168.5,456.1563,1164.5,452.1563" style="stroke: #A80036; stroke-width: 1.0;"/><text fill="#000000" font-family="sans-serif" font-size="13" lengthAdjust="spacingAndGlyphs" textLength="24" x="1164.5" y="434.0903">Run</text><polygon fill="#A80036" points="3371.5,477.1563,3381.5,481.1563,3371.5,485.1563,3375.5,481.1563" style="stroke: #A80036; stroke-width: 1.0;"/><line style="stroke: #A80036; stroke-width: 1.0;" x1="1157.5" x2="3377.5" y1="481.1563" y2="481.1563"/><text fill="#000000" font-family="sans-serif" font-size="13" lengthAdjust="spacingAndGlyphs" textLength="193" x="1164.5" y="476.2231">Connect( ConnectedCallback )</text><polygon fill="#A80036" points="1168.5,506.2891,1158.5,510.2891,1168.5,514.2891,1164.5,510.2891" style="stroke: #A80036; stroke-width: 1.0;"/><line style="stroke: #A80036; stroke-width: 1.0;" x1="1162.5" x2="3382.5" y1="510.2891" y2="510.2891"/><text fill="#000000" font-family="sans-serif" font-size="13" lengthAdjust="spacingAndGlyphs" textLength="113" x="1174.5" y="505.356">Connected( true )</text><polygon fill="#A80036" points="3371.5,535.4219,3381.5,539.4219,3371.5,543.4219,3375.5,539.4219" style="stroke: #A80036; stroke-width: 1.0;"/><line style="stroke: #A80036; stroke-width: 1.0;" x1="1157.5" x2="3377.5" y1="539.4219" y2="539.4219"/><text fill="#000000" font-family="sans-serif" font-size="13" lengthAdjust="spacingAndGlyphs" textLength="283" x="1164.5" y="534.4888">RequestLpmStatus( CallbackForLpmStatus )</text><polygon fill="#A80036" points="1168.5,564.5547,1158.5,568.5547,1168.5,572.5547,1164.5,568.5547" style="stroke: #A80036; stroke-width: 1.0;"/><line style="stroke: #A80036; stroke-width: 1.0;" x1="1162.5" x2="3382.5" y1="568.5547" y2="568.5547"/><text fill="#000000" font-family="sans-serif" font-size="13" lengthAdjust="spacingAndGlyphs" textLength="115" x="1174.5" y="563.6216">HandleLpmStatus</text><polygon fill="#A80036" points="893.5,593.6875,883.5,597.6875,893.5,601.6875,889.5,597.6875" style="stroke: #A80036; stroke-width: 1.0;"/><line style="stroke: #A80036; stroke-width: 1.0;" x1="887.5" x2="1156.5" y1="597.6875" y2="597.6875"/><text fill="#000000" font-family="sans-serif" font-size="13" lengthAdjust="spacingAndGlyphs" textLength="251" x="899.5" y="592.7544">HandleMessage( LPM_HARDWARE_UP )</text><polygon fill="#A80036" points="2466,622.8203,2476,626.8203,2466,630.8203,2470,626.8203" style="stroke: #A80036; stroke-width: 1.0;"/><line style="stroke: #A80036; stroke-width: 1.0;" x1="882.5" x2="2472" y1="626.8203" y2="626.8203"/><text fill="#000000" font-family="sans-serif" font-size="13" lengthAdjust="spacingAndGlyphs" textLength="209" x="889.5" y="621.8872">HandleLpmState( active = true )</text><polygon fill="#A80036" points="2703,651.9531,2713,655.9531,2703,659.9531,2707,655.9531" style="stroke: #A80036; stroke-width: 1.0;"/><line style="stroke: #A80036; stroke-width: 1.0;" x1="2478" x2="2709" y1="655.9531" y2="655.9531"/><text fill="#000000" font-family="sans-serif" font-size="13" lengthAdjust="spacingAndGlyphs" textLength="209" x="2485" y="651.02">HandleLpmState( active = true )</text><polygon fill="#A80036" points="893.5,681.0859,883.5,685.0859,893.5,689.0859,889.5,685.0859" style="stroke: #A80036; stroke-width: 1.0;"/><line style="stroke: #A80036; stroke-width: 1.0;" x1="887.5" x2="2714" y1="685.0859" y2="685.0859"/><text fill="#000000" font-family="sans-serif" font-size="13" lengthAdjust="spacingAndGlyphs" textLength="56" x="899.5" y="680.1528">IsBooted</text><polygon fill="#A80036" points="2703,710.2188,2713,714.2188,2703,718.2188,2707,714.2188" style="stroke: #A80036; stroke-width: 1.0;"/><line style="stroke: #A80036; stroke-width: 1.0;" x1="882.5" x2="2709" y1="714.2188" y2="714.2188"/><text fill="#000000" font-family="sans-serif" font-size="13" lengthAdjust="spacingAndGlyphs" textLength="30" x="889.5" y="709.2856">false</text><polygon fill="#A80036" points="893.5,739.3516,883.5,743.3516,893.5,747.3516,889.5,743.3516" style="stroke: #A80036; stroke-width: 1.0;"/><line style="stroke: #A80036; stroke-width: 1.0;" x1="887.5" x2="2714" y1="743.3516" y2="743.3516"/><text fill="#000000" font-family="sans-serif" font-size="13" lengthAdjust="spacingAndGlyphs" textLength="117" x="899.5" y="738.4185">GetNetworkStatus</text><polygon fill="#A80036" points="2703,768.4844,2713,772.4844,2703,776.4844,2707,772.4844" style="stroke: #A80036; stroke-width: 1.0;"/><line style="stroke: #A80036; stroke-width: 1.0;" x1="882.5" x2="2709" y1="772.4844" y2="772.4844"/><text fill="#000000" font-family="sans-serif" font-size="13" lengthAdjust="spacingAndGlyphs" textLength="30" x="889.5" y="767.5513">false</text><polygon fill="#A80036" points="1353.5,797.6172,1363.5,801.6172,1353.5,805.6172,1357.5,801.6172" style="stroke: #A80036; stroke-width: 1.0;"/><line style="stroke: #A80036; stroke-width: 1.0;" x1="882.5" x2="1359.5" y1="801.6172" y2="801.6172"/><text fill="#000000" font-family="sans-serif" font-size="13" lengthAdjust="spacingAndGlyphs" textLength="24" x="889.5" y="796.6841">Run</text><line style="stroke: #A80036; stroke-width: 1.0;" x1="1365.5" x2="1407.5" y1="830.8828" y2="830.8828"/><line style="stroke: #A80036; stroke-width: 1.0;" x1="1407.5" x2="1407.5" y1="830.8828" y2="843.8828"/><line style="stroke: #A80036; stroke-width: 1.0;" x1="1366.5" x2="1407.5" y1="843.8828" y2="843.8828"/><polygon fill="#A80036" points="1376.5,839.8828,1366.5,843.8828,1376.5,847.8828,1372.5,843.8828" style="stroke: #A80036; stroke-width: 1.0;"/><text fill="#000000" font-family="sans-serif" font-size="13" lengthAdjust="spacingAndGlyphs" textLength="96" x="1372.5" y="825.8169">ServeRequests</text><polygon fill="#A80036" points="585.5,868.8828,575.5,872.8828,585.5,876.8828,581.5,872.8828" style="stroke: #A80036; stroke-width: 1.0;"/><line style="stroke: #A80036; stroke-width: 1.0;" x1="579.5" x2="1364.5" y1="872.8828" y2="872.8828"/><text fill="#000000" font-family="sans-serif" font-size="13" lengthAdjust="spacingAndGlyphs" textLength="340" x="591.5" y="867.9497">RegisterGet( HandleGetConfigurationStatusRequest )</text><polygon fill="#A80036" points="585.5,898.0156,575.5,902.0156,585.5,906.0156,581.5,902.0156" style="stroke: #A80036; stroke-width: 1.0;"/><line style="stroke: #A80036; stroke-width: 1.0;" x1="579.5" x2="1364.5" y1="902.0156" y2="902.0156"/><text fill="#000000" font-family="sans-serif" font-size="13" lengthAdjust="spacingAndGlyphs" textLength="276" x="591.5" y="897.0825">RegisterGet( HandleGetLanguageRequest )</text><polygon fill="#A80036" points="585.5,927.1484,575.5,931.1484,585.5,935.1484,581.5,931.1484" style="stroke: #A80036; stroke-width: 1.0;"/><line style="stroke: #A80036; stroke-width: 1.0;" x1="579.5" x2="1364.5" y1="931.1484" y2="931.1484"/><text fill="#000000" font-family="sans-serif" font-size="13" lengthAdjust="spacingAndGlyphs" textLength="286" x="591.5" y="926.2153">RegisterPost( HandlePostLanguageRequest )</text><polygon fill="#A80036" points="585.5,956.2813,575.5,960.2813,585.5,964.2813,581.5,960.2813" style="stroke: #A80036; stroke-width: 1.0;"/><line style="stroke: #A80036; stroke-width: 1.0;" x1="579.5" x2="1364.5" y1="960.2813" y2="960.2813"/><text fill="#000000" font-family="sans-serif" font-size="13" lengthAdjust="spacingAndGlyphs" textLength="314" x="591.5" y="955.3481">RegisterNotification( HandleGetCapsNotification )</text><polygon fill="#A80036" points="282,970.4141,272,974.4141,282,978.4141,278,974.4141" style="stroke: #A80036; stroke-width: 1.0;"/><line style="stroke: #A80036; stroke-width: 1.0;" x1="276" x2="573.5" y1="974.4141" y2="974.4141"/><polygon fill="#A80036" points="562.5,984.4141,572.5,988.4141,562.5,992.4141,566.5,988.4141" style="stroke: #A80036; stroke-width: 1.0;"/><line style="stroke: #A80036; stroke-width: 1.0;" x1="271" x2="568.5" y1="988.4141" y2="988.4141"/><polygon fill="#A80036" points="1353.5,1013.4141,1363.5,1017.4141,1353.5,1021.4141,1357.5,1017.4141" style="stroke: #A80036; stroke-width: 1.0;"/><line style="stroke: #A80036; stroke-width: 1.0;" x1="574.5" x2="1359.5" y1="1017.4141" y2="1017.4141"/><text fill="#000000" font-family="sans-serif" font-size="13" lengthAdjust="spacingAndGlyphs" textLength="172" x="581.5" y="1012.481">HandleGetCapsNotification</text><polygon fill="#A80036" points="893.5,1042.5469,883.5,1046.5469,893.5,1050.5469,889.5,1046.5469" style="stroke: #A80036; stroke-width: 1.0;"/><line style="stroke: #A80036; stroke-width: 1.0;" x1="887.5" x2="1364.5" y1="1046.5469" y2="1046.5469"/><text fill="#000000" font-family="sans-serif" font-size="13" lengthAdjust="spacingAndGlyphs" textLength="180" x="899.5" y="1041.6138">HandleMessage( CAPS_UP )</text><polygon fill="#A80036" points="2466,1071.6797,2476,1075.6797,2466,1079.6797,2470,1075.6797" style="stroke: #A80036; stroke-width: 1.0;"/><line style="stroke: #A80036; stroke-width: 1.0;" x1="882.5" x2="2472" y1="1075.6797" y2="1075.6797"/><text fill="#000000" font-family="sans-serif" font-size="13" lengthAdjust="spacingAndGlyphs" textLength="213" x="889.5" y="1070.7466">HandleCapsState( active = true )</text><polygon fill="#A80036" points="2703,1100.8125,2713,1104.8125,2703,1108.8125,2707,1104.8125" style="stroke: #A80036; stroke-width: 1.0;"/><line style="stroke: #A80036; stroke-width: 1.0;" x1="2478" x2="2709" y1="1104.8125" y2="1104.8125"/><text fill="#000000" font-family="sans-serif" font-size="13" lengthAdjust="spacingAndGlyphs" textLength="213" x="2485" y="1099.8794">HandleCapsState( active = true )</text><polygon fill="#A80036" points="893.5,1129.9453,883.5,1133.9453,893.5,1137.9453,889.5,1133.9453" style="stroke: #A80036; stroke-width: 1.0;"/><line style="stroke: #A80036; stroke-width: 1.0;" x1="887.5" x2="2714" y1="1133.9453" y2="1133.9453"/><text fill="#000000" font-family="sans-serif" font-size="13" lengthAdjust="spacingAndGlyphs" textLength="56" x="899.5" y="1129.0122">IsBooted</text><polygon fill="#A80036" points="2703,1159.0781,2713,1163.0781,2703,1167.0781,2707,1163.0781" style="stroke: #A80036; stroke-width: 1.0;"/><line style="stroke: #A80036; stroke-width: 1.0;" x1="882.5" x2="2709" y1="1163.0781" y2="1163.0781"/><text fill="#000000" font-family="sans-serif" font-size="13" lengthAdjust="spacingAndGlyphs" textLength="26" x="889.5" y="1158.145">true</text><polygon fill="#A80036" points="893.5,1188.2109,883.5,1192.2109,893.5,1196.2109,889.5,1192.2109" style="stroke: #A80036; stroke-width: 1.0;"/><line style="stroke: #A80036; stroke-width: 1.0;" x1="887.5" x2="2714" y1="1192.2109" y2="1192.2109"/><text fill="#000000" font-family="sans-serif" font-size="13" lengthAdjust="spacingAndGlyphs" textLength="117" x="899.5" y="1187.2778">GetNetworkStatus</text><polygon fill="#A80036" points="2703,1217.3438,2713,1221.3438,2703,1225.3438,2707,1221.3438" style="stroke: #A80036; stroke-width: 1.0;"/><line style="stroke: #A80036; stroke-width: 1.0;" x1="882.5" x2="2709" y1="1221.3438" y2="1221.3438"/><text fill="#000000" font-family="sans-serif" font-size="13" lengthAdjust="spacingAndGlyphs" textLength="30" x="889.5" y="1216.4106">false</text><polygon fill="#A80036" points="2958.5,1246.4766,2968.5,1250.4766,2958.5,1254.4766,2962.5,1250.4766" style="stroke: #A80036; stroke-width: 1.0;"/><line style="stroke: #A80036; stroke-width: 1.0;" x1="2715" x2="2964.5" y1="1250.4766" y2="1250.4766"/><text fill="#000000" font-family="sans-serif" font-size="13" lengthAdjust="spacingAndGlyphs" textLength="84" x="2722" y="1245.5435">ChangeState</text><line style="stroke: #A80036; stroke-width: 1.0;" x1="1365.5" x2="1407.5" y1="1279.7422" y2="1279.7422"/><line style="stroke: #A80036; stroke-width: 1.0;" x1="1407.5" x2="1407.5" y1="1279.7422" y2="1292.7422"/><line style="stroke: #A80036; stroke-width: 1.0;" x1="1366.5" x2="1407.5" y1="1292.7422" y2="1292.7422"/><polygon fill="#A80036" points="1376.5,1288.7422,1366.5,1292.7422,1376.5,1296.7422,1372.5,1292.7422" style="stroke: #A80036; stroke-width: 1.0;"/><text fill="#000000" font-family="sans-serif" font-size="13" lengthAdjust="spacingAndGlyphs" textLength="100" x="1372.5" y="1274.6763">MonitorNetwork</text><polygon fill="#A80036" points="585.5,1317.7422,575.5,1321.7422,585.5,1325.7422,581.5,1321.7422" style="stroke: #A80036; stroke-width: 1.0;"/><line style="stroke: #A80036; stroke-width: 1.0;" x1="579.5" x2="1364.5" y1="1321.7422" y2="1321.7422"/><text fill="#000000" font-family="sans-serif" font-size="13" lengthAdjust="spacingAndGlyphs" textLength="406" x="591.5" y="1316.8091">SendGet( GetNetworkStatusSuccess, GetNetworkStatusFailed )</text><polygon fill="#A80036" points="113,1331.875,103,1335.875,113,1339.875,109,1335.875" style="stroke: #A80036; stroke-width: 1.0;"/><line style="stroke: #A80036; stroke-width: 1.0;" x1="107" x2="573.5" y1="1335.875" y2="1335.875"/><polygon fill="#A80036" points="562.5,1345.875,572.5,1349.875,562.5,1353.875,566.5,1349.875" style="stroke: #A80036; stroke-width: 1.0;"/><line style="stroke: #A80036; stroke-width: 1.0;" x1="102" x2="568.5" y1="1349.875" y2="1349.875"/><polygon fill="#A80036" points="1353.5,1374.875,1363.5,1378.875,1353.5,1382.875,1357.5,1378.875" style="stroke: #A80036; stroke-width: 1.0;"/><line style="stroke: #A80036; stroke-width: 1.0;" x1="574.5" x2="1359.5" y1="1378.875" y2="1378.875"/><text fill="#000000" font-family="sans-serif" font-size="13" lengthAdjust="spacingAndGlyphs" textLength="154" x="581.5" y="1373.9419">GetNetworkStatusFailed</text><line style="stroke: #A80036; stroke-width: 1.0;" x1="1365.5" x2="1407.5" y1="1408.1406" y2="1408.1406"/><line style="stroke: #A80036; stroke-width: 1.0;" x1="1407.5" x2="1407.5" y1="1408.1406" y2="1421.1406"/><line style="stroke: #A80036; stroke-width: 1.0;" x1="1366.5" x2="1407.5" y1="1421.1406" y2="1421.1406"/><polygon fill="#A80036" points="1376.5,1417.1406,1366.5,1421.1406,1376.5,1425.1406,1372.5,1421.1406" style="stroke: #A80036; stroke-width: 1.0;"/><text fill="#000000" font-family="sans-serif" font-size="13" lengthAdjust="spacingAndGlyphs" textLength="145" x="1372.5" y="1403.0747">Sleep( ONE_SECOND )</text><polygon fill="#A80036" points="585.5,1446.1406,575.5,1450.1406,585.5,1454.1406,581.5,1450.1406" style="stroke: #A80036; stroke-width: 1.0;"/><line style="stroke: #A80036; stroke-width: 1.0;" x1="579.5" x2="1364.5" y1="1450.1406" y2="1450.1406"/><text fill="#000000" font-family="sans-serif" font-size="13" lengthAdjust="spacingAndGlyphs" textLength="431" x="591.5" y="1445.2075">SendGet("/network/status", CallbackForSuccess, CallbackForFailure)</text><polygon fill="#A80036" points="113,1460.2734,103,1464.2734,113,1468.2734,109,1464.2734" style="stroke: #A80036; stroke-width: 1.0;"/><line style="stroke: #A80036; stroke-width: 1.0;" x1="107" x2="573.5" y1="1464.2734" y2="1464.2734"/><polygon fill="#A80036" points="562.5,1474.2734,572.5,1478.2734,562.5,1482.2734,566.5,1478.2734" style="stroke: #A80036; stroke-width: 1.0;"/><line style="stroke: #A80036; stroke-width: 1.0;" x1="102" x2="568.5" y1="1478.2734" y2="1478.2734"/><polygon fill="#A80036" points="1353.5,1503.2734,1363.5,1507.2734,1353.5,1511.2734,1357.5,1507.2734" style="stroke: #A80036; stroke-width: 1.0;"/><line style="stroke: #A80036; stroke-width: 1.0;" x1="574.5" x2="1359.5" y1="1507.2734" y2="1507.2734"/><text fill="#000000" font-family="sans-serif" font-size="13" lengthAdjust="spacingAndGlyphs" textLength="170" x="581.5" y="1502.3403">GetNetworkStatusSuccess</text><polygon fill="#A80036" points="893.5,1532.4063,883.5,1536.4063,893.5,1540.4063,889.5,1536.4063" style="stroke: #A80036; stroke-width: 1.0;"/><line style="stroke: #A80036; stroke-width: 1.0;" x1="887.5" x2="1364.5" y1="1536.4063" y2="1536.4063"/><text fill="#000000" font-family="sans-serif" font-size="13" lengthAdjust="spacingAndGlyphs" textLength="207" x="899.5" y="1531.4731">HandleMessage( NETWORK_UP )</text><polygon fill="#A80036" points="2466,1561.5391,2476,1565.5391,2466,1569.5391,2470,1565.5391" style="stroke: #A80036; stroke-width: 1.0;"/><line style="stroke: #A80036; stroke-width: 1.0;" x1="882.5" x2="2472" y1="1565.5391" y2="1565.5391"/><text fill="#000000" font-family="sans-serif" font-size="13" lengthAdjust="spacingAndGlyphs" textLength="233" x="889.5" y="1560.606">HandleNetworkState( active = true )</text><polygon fill="#A80036" points="2958.5,1590.6719,2968.5,1594.6719,2958.5,1598.6719,2962.5,1594.6719" style="stroke: #A80036; stroke-width: 1.0;"/><line style="stroke: #A80036; stroke-width: 1.0;" x1="2478" x2="2964.5" y1="1594.6719" y2="1594.6719"/><text fill="#000000" font-family="sans-serif" font-size="13" lengthAdjust="spacingAndGlyphs" textLength="233" x="2485" y="1589.7388">HandleNetworkState( active = true )</text><polygon fill="#A80036" points="893.5,1619.8047,883.5,1623.8047,893.5,1627.8047,889.5,1623.8047" style="stroke: #A80036; stroke-width: 1.0;"/><line style="stroke: #A80036; stroke-width: 1.0;" x1="887.5" x2="2969.5" y1="1623.8047" y2="1623.8047"/><text fill="#000000" font-family="sans-serif" font-size="13" lengthAdjust="spacingAndGlyphs" textLength="56" x="899.5" y="1618.8716">IsBooted</text><polygon fill="#A80036" points="2958.5,1648.9375,2968.5,1652.9375,2958.5,1656.9375,2962.5,1652.9375" style="stroke: #A80036; stroke-width: 1.0;"/><line style="stroke: #A80036; stroke-width: 1.0;" x1="882.5" x2="2964.5" y1="1652.9375" y2="1652.9375"/><text fill="#000000" font-family="sans-serif" font-size="13" lengthAdjust="spacingAndGlyphs" textLength="26" x="889.5" y="1648.0044">true</text><polygon fill="#A80036" points="893.5,1678.0703,883.5,1682.0703,893.5,1686.0703,889.5,1682.0703" style="stroke: #A80036; stroke-width: 1.0;"/><line style="stroke: #A80036; stroke-width: 1.0;" x1="887.5" x2="2969.5" y1="1682.0703" y2="1682.0703"/><text fill="#000000" font-family="sans-serif" font-size="13" lengthAdjust="spacingAndGlyphs" textLength="117" x="899.5" y="1677.1372">GetNetworkStatus</text><polygon fill="#A80036" points="2958.5,1707.2031,2968.5,1711.2031,2958.5,1715.2031,2962.5,1711.2031" style="stroke: #A80036; stroke-width: 1.0;"/><line style="stroke: #A80036; stroke-width: 1.0;" x1="882.5" x2="2964.5" y1="1711.2031" y2="1711.2031"/><text fill="#000000" font-family="sans-serif" font-size="13" lengthAdjust="spacingAndGlyphs" textLength="30" x="889.5" y="1706.27">false</text><polygon fill="#A80036" points="3199,1736.3359,3209,1740.3359,3199,1744.3359,3203,1740.3359" style="stroke: #A80036; stroke-width: 1.0;"/><line style="stroke: #A80036; stroke-width: 1.0;" x1="2970.5" x2="3205" y1="1740.3359" y2="1740.3359"/><text fill="#000000" font-family="sans-serif" font-size="13" lengthAdjust="spacingAndGlyphs" textLength="84" x="2977.5" y="1735.4028">ChangeState</text><polygon fill="#A80036" points="1547.5,1765.4688,1557.5,1769.4688,1547.5,1773.4688,1551.5,1769.4688" style="stroke: #A80036; stroke-width: 1.0;"/><line style="stroke: #A80036; stroke-width: 1.0;" x1="882.5" x2="1553.5" y1="1769.4688" y2="1769.4688"/><text fill="#000000" font-family="sans-serif" font-size="13" lengthAdjust="spacingAndGlyphs" textLength="24" x="889.5" y="1764.5356">Run</text><polygon fill="#A80036" points="1730,1794.6016,1740,1798.6016,1730,1802.6016,1734,1798.6016" style="stroke: #A80036; stroke-width: 1.0;"/><line style="stroke: #A80036; stroke-width: 1.0;" x1="882.5" x2="1736" y1="1798.6016" y2="1798.6016"/><text fill="#000000" font-family="sans-serif" font-size="13" lengthAdjust="spacingAndGlyphs" textLength="24" x="889.5" y="1793.6685">Run</text><polygon fill="#A80036" points="1923,1823.7344,1933,1827.7344,1923,1831.7344,1927,1827.7344" style="stroke: #A80036; stroke-width: 1.0;"/><line style="stroke: #A80036; stroke-width: 1.0;" x1="882.5" x2="1929" y1="1827.7344" y2="1827.7344"/><text fill="#000000" font-family="sans-serif" font-size="13" lengthAdjust="spacingAndGlyphs" textLength="24" x="889.5" y="1822.8013">Run</text><polygon fill="#A80036" points="2110,1852.8672,2120,1856.8672,2110,1860.8672,2114,1856.8672" style="stroke: #A80036; stroke-width: 1.0;"/><line style="stroke: #A80036; stroke-width: 1.0;" x1="882.5" x2="2116" y1="1856.8672" y2="1856.8672"/><text fill="#000000" font-family="sans-serif" font-size="13" lengthAdjust="spacingAndGlyphs" textLength="24" x="889.5" y="1851.9341">Run</text><polygon fill="#A80036" points="2287.5,1882,2297.5,1886,2287.5,1890,2291.5,1886" style="stroke: #A80036; stroke-width: 1.0;"/><line style="stroke: #A80036; stroke-width: 1.0;" x1="882.5" x2="2293.5" y1="1886" y2="1886"/><text fill="#000000" font-family="sans-serif" font-size="13" lengthAdjust="spacingAndGlyphs" textLength="24" x="889.5" y="1881.0669">Run</text><!--
@startuml
box "NetworkManager Process"
participant NetworkManager
end box

box "CAPS Process"
participant CAPSApplication
end box

box "AudioPath Process"
participant APProduct
end box

box "FrontDoor Process"
participant FrontDoorApplication
end box

box "ProductController Process"
participant ProductStart
participant ProfessorProductController
participant ProductHardwareInterface
participant ProductFrontDoorNetwork
participant ProductAudioServices
participant ProductDeviceSettings
participant ProductSoftwareServices
participant ProductUserInterface
participant ProductCommandLine
participant ProductStateMachine
participant CustomProductStateBooting
participant CustomProductStateNetworkStandby
participant CustomProductStateIdle
end box

box "LPMServer Process"
participant LPMServer
end box

ProductStart                     -> ProfessorProductController       : GetInstance
ProductStart                     -> ProfessorProductController       : Run
ProfessorProductController       -> ProductHardwareInterface         : GetInstance
ProfessorProductController       -> ProductFrontDoorNetwork          : GetInstance
ProfessorProductController       -> ProductAudioServices             : GetInstance
ProfessorProductController       -> ProductDeviceSettings            : GetInstance
ProfessorProductController       -> ProductSoftwareServices          : GetInstance
ProfessorProductController       -> ProductUserInterface             : GetInstance
ProfessorProductController       -> ProductCommandLine               : GetInstance
ProfessorProductController       -> ProductHardwareInterface         : Run
ProductHardwareInterface         -> LPMServer                        : Connect( ConnectedCallback )
LPMServer                        -> ProductHardwareInterface         : Connected( false )
ProductHardwareInterface         -> ProductHardwareInterface         : Run
ProductHardwareInterface         -> LPMServer                        : Connect( ConnectedCallback )
LPMServer                        -> ProductHardwareInterface         : Connected( true )
ProductHardwareInterface         -> LPMServer                        : RequestLpmStatus( CallbackForLpmStatus )
LPMServer                        -> ProductHardwareInterface         : HandleLpmStatus
ProductHardwareInterface         -> ProfessorProductController       : HandleMessage( LPM_HARDWARE_UP )
ProfessorProductController       -> ProductStateMachine              : HandleLpmState( active = true )
ProductStateMachine              -> CustomProductStateBooting        : HandleLpmState( active = true )
CustomProductStateBooting        -> ProfessorProductController       : IsBooted
ProfessorProductController       -> CustomProductStateBooting        : false
CustomProductStateBooting        -> ProfessorProductController       : GetNetworkStatus
ProfessorProductController       -> CustomProductStateBooting        : false
ProfessorProductController       -> ProductFrontDoorNetwork          : Run
ProductFrontDoorNetwork          -> ProductFrontDoorNetwork          : ServeRequests
ProductFrontDoorNetwork          -> FrontDoorApplication             : RegisterGet( HandleGetConfigurationStatusRequest )
ProductFrontDoorNetwork          -> FrontDoorApplication             : RegisterGet( HandleGetLanguageRequest )
ProductFrontDoorNetwork          -> FrontDoorApplication             : RegisterPost( HandlePostLanguageRequest )
ProductFrontDoorNetwork          -> FrontDoorApplication             : RegisterNotification( HandleGetCapsNotification )
FrontDoorApplication             -> CAPSApplication
CAPSApplication                  -> FrontDoorApplication
FrontDoorApplication             -> ProductFrontDoorNetwork          : HandleGetCapsNotification
ProductFrontDoorNetwork          -> ProfessorProductController       : HandleMessage( CAPS_UP )
ProfessorProductController       -> ProductStateMachine              : HandleCapsState( active = true )
ProductStateMachine              -> CustomProductStateBooting        : HandleCapsState( active = true )
CustomProductStateBooting        -> ProfessorProductController       : IsBooted
ProfessorProductController       -> CustomProductStateBooting        : true
CustomProductStateBooting        -> ProfessorProductController       : GetNetworkStatus
ProfessorProductController       -> CustomProductStateBooting        : false
CustomProductStateBooting        -> CustomProductStateNetworkStandby : ChangeState
ProductFrontDoorNetwork          -> ProductFrontDoorNetwork          : MonitorNetwork
ProductFrontDoorNetwork          -> FrontDoorApplication             : SendGet( GetNetworkStatusSuccess, GetNetworkStatusFailed )
FrontDoorApplication             -> NetworkManager
NetworkManager                   -> FrontDoorApplication
FrontDoorApplication             -> ProductFrontDoorNetwork          : GetNetworkStatusFailed
ProductFrontDoorNetwork          -> ProductFrontDoorNetwork          : Sleep( ONE_SECOND )
ProductFrontDoorNetwork          -> FrontDoorApplication             : SendGet("/network/status", CallbackForSuccess, CallbackForFailure)
FrontDoorApplication             -> NetworkManager
NetworkManager                   -> FrontDoorApplication
FrontDoorApplication             -> ProductFrontDoorNetwork          : GetNetworkStatusSuccess
ProductFrontDoorNetwork          -> ProfessorProductController       : HandleMessage( NETWORK_UP )
ProfessorProductController       -> ProductStateMachine              : HandleNetworkState( active = true )
ProductStateMachine              -> CustomProductStateNetworkStandby : HandleNetworkState( active = true )
CustomProductStateNetworkStandby -> ProfessorProductController       : IsBooted
ProfessorProductController       -> CustomProductStateNetworkStandby : true
CustomProductStateNetworkStandby -> ProfessorProductController       : GetNetworkStatus
ProfessorProductController       -> CustomProductStateNetworkStandby : false
CustomProductStateNetworkStandby -> CustomProductStateIdle           : ChangeState
ProfessorProductController       -> ProductAudioServices             : Run
ProfessorProductController       -> ProductDeviceSettings            : Run
ProfessorProductController       -> ProductSoftwareServices          : Run
ProfessorProductController       -> ProductUserInterface             : Run
ProfessorProductController       -> ProductCommandLine               : Run
@enduml

PlantUML version 1.2017.18beta8(Unknown compile time)
(GPL source distribution)
Java Runtime: Java(TM) SE Runtime Environment
JVM: Java HotSpot(TM) 64-Bit Server VM
Java Version: 1.7.0_25-b15
Operating System: Linux
Default Encoding: UTF-8
Language: en
Country: US
--></g></svg>